<?xml version="1.0" encoding="UTF-8"?>
<!DOCTYPE svg PUBLIC "-//W3C//DTD SVG 1.1//EN" "http://www.w3.org/Graphics/SVG/1.1/DTD/svg11.dtd">
<svg xmlns="http://www.w3.org/2000/svg" version="1.1" width="231px" height="58px" style="shape-rendering:geometricPrecision; text-rendering:geometricPrecision; image-rendering:optimizeQuality; fill-rule:evenodd; clip-rule:evenodd" xmlns:xlink="http://www.w3.org/1999/xlink">
<g><path style="opacity:1" fill="#fbfbff" d="M -0.5,-0.5 C 7.16667,-0.5 14.8333,-0.5 22.5,-0.5C 23.4669,4.36733 21.4669,6.534 16.5,6C 9.99556,9.67214 5.99556,15.1721 4.5,22.5C 2.83333,22.5 1.16667,22.5 -0.5,22.5C -0.5,14.8333 -0.5,7.16667 -0.5,-0.5 Z"/></g>
<g><path style="opacity:1" fill="#fdfdfd" d="M 25.5,-0.5 C 93.8333,-0.5 162.167,-0.5 230.5,-0.5C 230.5,18.8333 230.5,38.1667 230.5,57.5C 153.5,57.5 76.5,57.5 -0.5,57.5C -0.5,47.1667 -0.5,36.8333 -0.5,26.5C 1.16667,26.5 2.83333,26.5 4.5,26.5C 6.22452,36.8913 12.2245,42.8913 22.5,44.5C 22.5,46.1667 22.5,47.8333 22.5,49.5C 23.5,49.5 24.5,49.5 25.5,49.5C 25.5,47.8333 25.5,46.1667 25.5,44.5C 36.5,43.5 42.5,37.5 43.5,26.5C 45.1667,26.5 46.8333,26.5 48.5,26.5C 48.5,25.1667 48.5,23.8333 48.5,22.5C 46.8333,22.5 45.1667,22.5 43.5,22.5C 42.1205,12.619 36.4538,6.78568 26.5,5C 25.5939,3.30054 25.2606,1.4672 25.5,-0.5 Z"/></g>
<g><path style="opacity:1" fill="#4d33e5" d="M 94.5,11.5 C 95.8333,11.5 97.1667,11.5 98.5,11.5C 98.3343,15.8461 98.501,20.1794 99,24.5C 103.625,20.3541 107.959,20.6875 112,25.5C 112.667,29.5 112.667,33.5 112,37.5C 108.243,43.2095 103.743,43.8762 98.5,39.5C 97.6143,40.325 97.281,41.325 97.5,42.5C 96.5,42.5 95.5,42.5 94.5,42.5C 94.5,32.1667 94.5,21.8333 94.5,11.5 Z"/></g>
<g><path style="opacity:1" fill="#3c59fd" d="M 22.5,-0.5 C 23.5,-0.5 24.5,-0.5 25.5,-0.5C 25.2606,1.4672 25.5939,3.30054 26.5,5C 36.4538,6.78568 42.1205,12.619 43.5,22.5C 45.1667,22.5 46.8333,22.5 48.5,22.5C 48.5,23.8333 48.5,25.1667 48.5,26.5C 46.8333,26.5 45.1667,26.5 43.5,26.5C 42.5,37.5 36.5,43.5 25.5,44.5C 25.5,46.1667 25.5,47.8333 25.5,49.5C 24.5,49.5 23.5,49.5 22.5,49.5C 22.5,47.8333 22.5,46.1667 22.5,44.5C 12.2245,42.8913 6.22452,36.8913 4.5,26.5C 2.83333,26.5 1.16667,26.5 -0.5,26.5C -0.5,25.1667 -0.5,23.8333 -0.5,22.5C 1.16667,22.5 2.83333,22.5 4.5,22.5C 5.99556,15.1721 9.99556,9.67214 16.5,6C 21.4669,6.534 23.4669,4.36733 22.5,-0.5 Z"/></g>
<g><path style="opacity:1" fill="#f9f9ff" d="M 19.5,8.5 C 36.152,8.31466 42.652,16.3147 39,32.5C 33.0599,41.5552 25.2266,43.7218 15.5,39C 8.91529,33.6427 6.74863,26.8094 9,18.5C 11.434,13.8957 14.934,10.5624 19.5,8.5 Z"/></g>
<g><path style="opacity:1" fill="#3f3ce7" d="M 60.5,14.5 C 61.8333,14.5 63.1667,14.5 64.5,14.5C 64.6664,22.84 64.4997,31.1733 64,39.5C 60.5299,43.1418 57.0299,43.3084 53.5,40C 53.8333,39.5 54.1667,39 54.5,38.5C 56.7394,40.1205 58.5728,39.7871 60,37.5C 60.4997,29.8406 60.6664,22.1739 60.5,14.5 Z"/></g>
<g><path style="opacity:1" fill="#181017" d="M 137.5,14.5 C 154.491,11.9875 161.324,18.9875 158,35.5C 156.332,39.1655 153.499,41.3322 149.5,42C 145.514,42.4988 141.514,42.6655 137.5,42.5C 137.5,33.1667 137.5,23.8333 137.5,14.5 Z"/></g>
<g><path style="opacity:1" fill="#4460fa" d="M 21.5,15.5 C 28.4863,15.331 30.153,18.1643 26.5,24C 19.4159,24.475 17.7492,21.6417 21.5,15.5 Z"/></g>
<g><path style="opacity:1" fill="#f1eeee" d="M 140.5,17.5 C 153.868,16.7119 158.368,22.7119 154,35.5C 150.215,38.9642 145.715,40.2976 140.5,39.5C 140.5,32.1667 140.5,24.8333 140.5,17.5 Z"/></g>
<g><path style="opacity:1" fill="#3f33e6" d="M 75.5,21.5 C 87.1169,21.0787 91.2836,26.4121 88,37.5C 84.9749,41.9205 80.8082,43.4205 75.5,42C 70.1499,38.6295 68.3165,33.7961 70,27.5C 71.3597,24.9774 73.193,22.9774 75.5,21.5 Z"/></g>
<g><path style="opacity:1" fill="#4537e6" d="M 121.5,21.5 C 123.857,21.3367 126.19,21.5034 128.5,22C 130.405,22.8261 130.739,23.9928 129.5,25.5C 127.232,24.4557 124.899,24.289 122.5,25C 121.978,25.5613 121.645,26.228 121.5,27C 124.48,29.5934 127.647,32.0934 131,34.5C 130.592,40.9764 127.092,43.4764 120.5,42C 117.968,41.3878 117.135,39.8878 118,37.5C 120.579,39.3467 123.412,39.8467 126.5,39C 127.747,37.5064 127.747,36.0064 126.5,34.5C 123.247,33.4787 120.414,31.812 118,29.5C 117.279,25.9463 118.446,23.2796 121.5,21.5 Z"/></g>
<g><path style="opacity:1" fill="#20151c" d="M 170.5,21.5 C 181.453,21.7445 185.287,27.0779 182,37.5C 178.65,42.0834 174.15,43.5834 168.5,42C 164.12,38.1289 162.62,33.2956 164,27.5C 165.494,24.6865 167.66,22.6865 170.5,21.5 Z"/></g>
<g><path style="opacity:1" fill="#20151c" d="M 194.5,21.5 C 205.453,21.7445 209.287,27.0779 206,37.5C 202.65,42.0834 198.15,43.5834 192.5,42C 188.12,38.1289 186.62,33.2956 188,27.5C 189.494,24.6865 191.66,22.6865 194.5,21.5 Z"/></g>
<g><path style="opacity:1" fill="#130f22" d="M 213.5,21.5 C 214.5,21.5 215.5,21.5 216.5,21.5C 216.443,25.1331 217.443,25.2998 219.5,22C 221.134,21.5065 222.801,21.3398 224.5,21.5C 224.657,22.8734 224.49,24.2068 224,25.5C 220.592,23.7767 218.259,24.7767 217,28.5C 216.501,33.1548 216.334,37.8215 216.5,42.5C 215.5,42.5 214.5,42.5 213.5,42.5C 213.5,35.5 213.5,28.5 213.5,21.5 Z"/></g>
<g><path style="opacity:1" fill="#f8f8fd" d="M 76.5,24.5 C 84.3223,24.1659 87.1556,27.8325 85,35.5C 81.8295,40.4141 78.1628,40.7475 74,36.5C 72.7734,31.938 73.6067,27.938 76.5,24.5 Z"/></g>
<g><path style="opacity:1" fill="#f6f8fd" d="M 102.5,24.5 C 107.35,24.5188 109.683,27.0188 109.5,32C 108.571,39.9068 105.071,41.4068 99,36.5C 98.3333,33.5 98.3333,30.5 99,27.5C 100.145,26.3636 101.312,25.3636 102.5,24.5 Z"/></g>
<g><path style="opacity:1" fill="#f8f7f2" d="M 170.5,24.5 C 178.819,24.3442 181.652,28.3442 179,36.5C 175.333,40.5 171.667,40.5 168,36.5C 166.888,32.0186 167.721,28.0186 170.5,24.5 Z"/></g>
<g><path style="opacity:1" fill="#f8f7f2" d="M 194.5,24.5 C 202.819,24.3442 205.652,28.3442 203,36.5C 199.333,40.5 195.667,40.5 192,36.5C 190.888,32.0186 191.721,28.0186 194.5,24.5 Z"/></g>
<g><path style="opacity:1" fill="#4762fa" d="M 19.5,25.5 C 22.1735,26.7026 24.8401,26.7026 27.5,25.5C 31.6768,27.008 33.6768,30.008 33.5,34.5C 27.4908,34.6662 21.4908,34.4995 15.5,34C 15.0241,30.4456 16.3574,27.6122 19.5,25.5 Z"/></g>
</svg>
